# xmcd
#
# Track frame offsets:
#	150
#	16167
#	33145
#	50615
#	71392
#	86767
#	100115
#	115632
#	127825
#	146685
#
# Disc length: 2121 seconds
#
# Revision: 1
# Processed by: cddbd v1.5.2PL0 Copyright (c) Steve Scherf et al.
# Submitted via: audiograbber 1.82.02
#
DISCID=7608470a
DTITLE=Mr Henry - 40 Watt Fade
DYEAR=2000
DGENRE=Country
TTITLE0=Apollo Race
TTITLE1=One
TTITLE2=B-Side Stars
TTITLE3=Tuesday
TTITLE4=100 Miles
TTITLE5=Marathon
TTITLE6=Mrs. Anderson
TTITLE7=Used To Be
TTITLE8=Happily Neverafter
TTITLE9=End Of This Town
EXTD=
EXTT0=
EXTT1=
EXTT2=
EXTT3=
EXTT4=
EXTT5=
EXTT6=
EXTT7=
EXTT8=
EXTT9=
PLAYORDER=
